<?xml version="1.0" standalone="no"?>
<!DOCTYPE svg PUBLIC "-//W3C//DTD SVG 20010904//EN"
 "http://www.w3.org/TR/2001/REC-SVG-20010904/DTD/svg10.dtd">
<svg version="1.0" xmlns="http://www.w3.org/2000/svg"
 width="2245.000000pt" height="2245.000000pt" viewBox="0 0 2245.000000 2245.000000"
 preserveAspectRatio="xMidYMid meet">
<metadata>
Created by potrace 1.14, written by Peter Selinger 2001-2017
</metadata>
<g transform="translate(0.000000,2245.000000) scale(0.100000,-0.100000)"
fill="#000000" stroke="none">
<path d="M65 11228 l0 -8553 1606 -3 1606 -2 -1 5465 c-1 4024 2 5461 10 5452
6 -7 197 -331 424 -722 227 -390 423 -727 436 -747 13 -21 24 -39 24 -42 0 -2
41 -72 90 -155 49 -84 90 -154 90 -157 0 -2 12 -23 27 -47 14 -23 58 -96 96
-162 184 -316 211 -363 232 -400 13 -22 69 -119 125 -215 56 -96 114 -195 128
-220 14 -25 32 -56 42 -70 14 -22 38 -62 127 -220 38 -67 476 -815 494 -845
10 -16 22 -37 26 -45 10 -20 343 -593 352 -605 5 -5 22 -35 38 -65 30 -54 464
-801 483 -830 5 -8 31 -53 58 -100 27 -47 80 -139 119 -205 88 -151 250 -430
273 -470 10 -16 41 -70 70 -120 29 -49 60 -103 70 -120 9 -16 46 -79 82 -140
66 -111 443 -757 458 -785 5 -8 23 -40 41 -70 17 -30 40 -68 49 -85 26 -47
582 -1001 660 -1135 5 -8 63 -107 128 -220 65 -113 206 -353 312 -535 106
-181 201 -344 210 -361 10 -18 82 -141 161 -275 78 -134 151 -260 162 -279 80
-141 173 -299 188 -322 11 -15 19 -29 19 -32 0 -3 16 -31 35 -63 l35 -58 0
3002 0 3002 -86 148 c-47 81 -89 155 -94 163 -19 31 -132 225 -329 565 -112
193 -212 362 -222 377 -11 15 -19 30 -19 34 0 3 -25 46 -56 96 -30 50 -58 97
-62 107 -4 9 -39 70 -78 136 -40 66 -81 136 -92 155 -11 19 -144 249 -297 510
-152 261 -287 493 -299 515 -13 22 -51 86 -85 143 -33 56 -61 104 -61 107 0 2
-23 40 -50 85 -28 45 -50 83 -50 85 0 2 -28 50 -61 107 -34 56 -70 117 -79
133 -15 25 -79 136 -180 310 -9 17 -47 82 -84 145 -36 63 -70 122 -76 130 -13
20 -128 218 -165 286 -17 30 -36 59 -43 66 -7 7 -12 15 -12 20 0 4 -29 56 -64
115 -34 59 -96 164 -136 233 -40 69 -86 146 -101 171 -16 25 -29 48 -29 51 0
2 -38 68 -85 147 -47 78 -85 144 -85 146 0 3 -19 35 -42 72 -22 38 -49 82 -58
98 -43 75 -145 251 -288 495 -85 146 -163 279 -172 295 -54 94 -562 966 -611
1048 -33 54 -59 102 -59 107 0 6 -4 10 -8 10 -4 0 -13 12 -19 28 -7 15 -23 45
-36 67 -72 119 -217 368 -217 372 0 3 -8 17 -19 31 -10 15 -30 48 -44 75 -15
26 -113 195 -218 375 -105 180 -209 359 -232 397 -22 39 -52 90 -67 115 -25
41 -290 497 -338 580 -11 19 -66 114 -122 210 -56 96 -110 189 -120 205 -9 17
-31 53 -47 81 -17 27 -41 70 -55 95 -14 24 -68 117 -120 205 -52 89 -98 168
-102 175 -3 8 -17 32 -31 54 -14 22 -36 60 -50 85 -14 25 -36 63 -49 85 -14
22 -31 51 -39 65 -29 52 -57 100 -80 137 -13 21 -27 45 -30 53 -4 8 -17 31
-28 50 -12 19 -33 55 -47 80 -14 25 -30 53 -36 63 -10 16 -96 17 -1566 17
l-1555 0 0 -8552z"/>
<path d="M18887 19758 c-8 -13 -40 -67 -71 -120 -83 -144 -153 -265 -251 -433
-48 -82 -96 -163 -105 -180 -9 -16 -100 -172 -200 -345 -101 -173 -221 -380
-267 -460 -46 -80 -90 -154 -96 -165 -25 -41 -55 -92 -79 -135 -25 -45 -250
-432 -380 -655 -145 -247 -177 -302 -229 -393 -30 -51 -58 -101 -64 -110 -41
-71 -448 -770 -455 -782 -10 -16 -189 -324 -331 -570 -46 -80 -88 -153 -94
-162 -5 -9 -39 -67 -75 -129 -36 -61 -72 -123 -80 -138 -9 -14 -29 -48 -45
-76 -16 -27 -59 -102 -96 -165 -229 -394 -675 -1161 -693 -1193 -23 -42 -31
-55 -62 -107 -20 -33 -53 -91 -151 -260 -24 -41 -48 -82 -53 -90 -5 -8 -26
-44 -46 -80 -20 -36 -52 -90 -69 -120 -58 -97 -161 -274 -187 -320 -39 -69
-154 -266 -262 -449 -53 -90 -96 -165 -96 -167 0 -2 -17 -32 -38 -66 -21 -35
-41 -70 -45 -78 -4 -8 -17 -31 -29 -50 -12 -19 -31 -52 -42 -72 -12 -20 -55
-94 -96 -165 -41 -70 -80 -137 -86 -148 -6 -11 -82 -141 -169 -290 -87 -148
-166 -286 -177 -305 -11 -19 -52 -89 -90 -155 -39 -66 -103 -175 -142 -242
-39 -68 -73 -123 -76 -123 -4 0 -213 355 -314 534 -16 28 -108 186 -204 351
-96 165 -185 318 -197 340 -13 22 -57 98 -99 169 -42 70 -76 130 -76 132 0 2
-20 36 -44 76 -36 59 -384 658 -458 787 -11 19 -117 202 -236 405 -188 323
-267 461 -343 593 -22 39 -388 668 -467 803 -31 52 -70 120 -87 150 -18 30
-80 138 -139 240 -60 102 -132 226 -160 275 -29 50 -72 124 -97 165 -24 41
-51 89 -60 105 -9 17 -38 66 -64 110 -48 81 -69 117 -104 179 -26 45 -255 440
-341 586 -37 63 -78 133 -90 155 -13 22 -31 54 -41 70 -10 17 -30 53 -44 80
-39 72 -45 75 -46 25 0 -25 0 -1370 -1 -2990 l0 -2945 172 -295 c95 -162 181
-308 190 -325 10 -16 50 -86 90 -155 40 -69 87 -150 105 -180 17 -30 88 -152
158 -271 69 -120 135 -233 146 -252 22 -40 60 -103 79 -132 6 -11 16 -29 22
-40 5 -11 22 -41 37 -66 16 -25 56 -95 91 -155 35 -60 67 -116 72 -124 18 -29
127 -216 152 -260 23 -42 209 -360 257 -440 11 -19 27 -48 36 -63 9 -15 117
-202 242 -415 124 -213 237 -407 250 -432 14 -25 38 -65 53 -90 24 -39 284
-485 338 -580 10 -19 54 -94 96 -166 l77 -132 1054 0 1054 0 33 57 c18 31 37
65 43 76 22 39 628 1081 671 1153 24 40 44 75 44 77 0 4 16 30 77 130 7 11 31
54 54 95 23 41 50 86 59 100 9 14 31 50 47 80 31 57 146 253 163 280 5 8 18
31 29 50 21 40 923 1591 1062 1825 26 44 97 168 159 275 62 107 132 227 155
265 23 39 54 90 67 115 33 58 165 286 189 325 11 17 22 37 26 45 3 8 17 32 30
53 13 21 32 53 43 72 10 18 82 142 161 276 78 134 151 260 161 279 55 96 244
421 269 460 15 25 37 63 49 85 22 41 151 262 357 613 62 107 113 196 113 200
0 3 6 13 14 21 7 9 28 43 46 76 17 33 35 65 40 70 4 6 19 30 32 55 46 82 240
415 248 425 4 6 19 30 32 55 52 94 132 232 168 290 5 8 28 48 50 88 23 39 44
72 48 72 4 0 7 -2598 7 -5772 l0 -5773 1606 -3 1606 -2 0 8555 0 8555 -1738 0
-1739 0 -13 -22z"/>
</g>
</svg>
